<svg xmlns="http://www.w3.org/2000/svg" viewBox="10 35 800 495" font-family="ui-sans-serif, system-ui, 'Segoe UI', sans-serif">
  <defs>
    <marker id="ahb" markerWidth="10" markerHeight="10" refX="8" refY="3" orient="auto"><path d="M0,0 L8,3 L0,6 Z" fill="#1e1e1e"/></marker>
    <marker id="aht" markerWidth="10" markerHeight="10" refX="8" refY="3" orient="auto"><path d="M0,0 L8,3 L0,6 Z" fill="#0e7490"/></marker>
    <marker id="ahg" markerWidth="10" markerHeight="10" refX="8" refY="3" orient="auto"><path d="M0,0 L8,3 L0,6 Z" fill="#15803d"/></marker>
    <marker id="ahr" markerWidth="10" markerHeight="10" refX="8" refY="3" orient="auto"><path d="M0,0 L8,3 L0,6 Z" fill="#b91c1c"/></marker>
  </defs>
  <rect x="10" y="35" width="800" height="495" fill="#ffffff"/>
  <text x="410" y="55" text-anchor="middle" font-size="22" font-weight="600" fill="#1e1e1e">Capital Hook — Architecture &amp; Data Flow</text>

  <!-- Capital.com external zone -->
  <rect x="548" y="70" width="256" height="314" rx="12" fill="#ffd8a8" fill-opacity="0.22" stroke="#f59e0b" stroke-width="1"/>
  <text x="676" y="86" text-anchor="middle" font-size="13" fill="#b45309">Capital.com (external)</text>

  <!-- boxes -->
  <g stroke-width="2">
    <rect x="30" y="80" width="150" height="70" rx="10" fill="#a5d8ff" stroke="#4a9eed"/>
    <rect x="250" y="72" width="230" height="82" rx="10" fill="#d0bfff" stroke="#8b5cf6"/>
    <rect x="250" y="190" width="230" height="75" rx="10" fill="#d0bfff" stroke="#8b5cf6"/>
    <rect x="250" y="300" width="230" height="75" rx="10" fill="#fff3bf" stroke="#f59e0b"/>
    <rect x="560" y="92" width="232" height="66" rx="10" fill="#ffd8a8" stroke="#f59e0b"/>
    <rect x="560" y="200" width="232" height="66" rx="10" fill="#c3fae8" stroke="#06b6d4"/>
    <rect x="560" y="308" width="232" height="66" rx="10" fill="#ffd8a8" stroke="#f59e0b"/>
    <rect x="560" y="440" width="232" height="72" rx="10" fill="#c3fae8" stroke="#06b6d4"/>
    <rect x="30" y="440" width="150" height="72" rx="10" fill="#a5d8ff" stroke="#4a9eed"/>
    <rect x="250" y="440" width="230" height="72" rx="10" fill="#b2f2bb" stroke="#22c55e"/>
  </g>

  <!-- box labels -->
  <g text-anchor="middle" fill="#1e1e1e" font-size="15">
    <text x="105" y="110">TradingView</text><text x="105" y="128">Alert</text>
    <text x="365" y="105">Webhook route</text><text x="365" y="123" font-size="13">IP allowlist · resolve · dedup</text>
    <text x="365" y="221">Trade Execution</text><text x="365" y="239" font-size="13">(background task)</text>
    <text x="365" y="331">Monitor loop ~1.12s</text><text x="365" y="349" font-size="13">exit rules (TP/SL/EOD/…)</text>
    <text x="676" y="120" font-size="14">Capital.com WebSocket</text><text x="676" y="138" font-size="13">live prices</text>
    <text x="676" y="228">In-memory state</text><text x="676" y="246" font-size="13">prices · positions</text>
    <text x="676" y="336" font-size="14">Capital.com REST</text><text x="676" y="354" font-size="13">open / close orders</text>
    <text x="676" y="472" font-size="14">SQLite</text><text x="676" y="490" font-size="12">trades · positions · config · mappings</text>
    <text x="105" y="470">Browser</text><text x="105" y="488" font-size="13">(session login)</text>
    <text x="365" y="470">Dashboard · Config</text><text x="365" y="488" font-size="13">Mapping · History</text>
  </g>

  <!-- arrows -->
  <g stroke-width="2" fill="none">
    <line x1="180" y1="115" x2="246" y2="115" stroke="#1e1e1e" marker-end="url(#ahb)"/>
    <line x1="365" y1="154" x2="365" y2="186" stroke="#1e1e1e" marker-end="url(#ahb)"/>
    <line x1="365" y1="265" x2="365" y2="296" stroke="#1e1e1e" marker-end="url(#ahb)"/>
    <line x1="676" y1="158" x2="676" y2="196" stroke="#0e7490" marker-end="url(#aht)"/>
    <line x1="472" y1="252" x2="556" y2="306" stroke="#15803d" marker-end="url(#ahg)"/>
    <line x1="482" y1="340" x2="556" y2="340" stroke="#b91c1c" marker-end="url(#ahr)"/>
    <line x1="558" y1="234" x2="484" y2="322" stroke="#0e7490" marker-end="url(#aht)"/>
    <line x1="452" y1="375" x2="596" y2="438" stroke="#1e1e1e" marker-end="url(#ahb)"/>
    <line x1="180" y1="476" x2="246" y2="476" stroke="#1e1e1e" marker-end="url(#ahb)"/>
    <line x1="482" y1="476" x2="556" y2="476" stroke="#15803d" marker-end="url(#ahg)"/>
  </g>
  <!-- arrow labels -->
  <g text-anchor="middle" font-size="13">
    <rect x="654" y="168" width="46" height="16" fill="#ffffff"/><text x="676" y="180" fill="#0e7490">quotes</text>
    <text x="505" y="276" fill="#15803d">open</text>
    <rect x="505" y="326" width="34" height="16" fill="#ffffff"/><text x="519" y="338" fill="#b91c1c">close</text>
    <text x="533" y="286" fill="#0e7490">price</text>
    <text x="527" y="404" fill="#1e1e1e">save</text>
    <rect x="500" y="466" width="38" height="16" fill="#ffffff"/><text x="519" y="478" fill="#15803d">reads</text>
  </g>
</svg>
